<?xml version="1.0" encoding="UTF-8"?>
<svg id="Livello_1" data-name="Livello 1" xmlns="http://www.w3.org/2000/svg" viewBox="0 0 235.56 217.08">
  <defs>
    <style>
      .cls-1 {
        fill: #7592ad;
      }

      .cls-2 {
        fill: #fafafb;
      }

      .cls-3 {
        fill: #476b86;
      }
    </style>
  </defs>
  <path class="cls-2" d="M235.56,0v217.08H0V0h235.56ZM51.93,75.24c.28,7.94,2.59,14.32,7.17,20.73,1.89,2.64,8.02,8.96,8.18,11.86.03.59-.23,1.04-.24,1.62-6.56,7.03-13.54,14.66-16.01,24.24-.71,2.76-1.76,7.43-1.74,10.2-.2.44-.28,1.04-.34,1.52-2.56,20.18,13.35,47.07,32.01,54.94,6.57,2.77,14.78,4.18,21.89,4.74,14.93,1.17,37.11-.34,49.75-9.02,23.74-16.3,33.41-51.76,16.49-76.34-2.51-3.65-5.46-5.83-8.26-9.02-3.01-3.43-1.98-4.98.15-8.5,3.88-6.41,9.34-10.71,11.05-18.46,4.67-21.26-15.27-41.98-31.18-53-8.47-5.86-20.43-12.34-30.62-14.06-.37-.06-.88-.06-1.12-.12-.12-.03-.11-.29-.28-.34-.29-.1-.74.04-1.06-.02s-1-.43-1.6-.56c-16.55-3.53-30.91,1.66-40.59,15.36-8.88,12.58-14.2,28.75-13.65,44.25Z"/>
  <path class="cls-1" d="M51.93,75.24c-.56-15.5,4.76-31.67,13.65-44.25,9.68-13.7,24.04-18.89,40.59-15.36.6.13,1.29.5,1.6.56.32.06.78-.08,1.06.02.16.06.15.31.28.34.23.06.75.05,1.12.12-.08.88.06.5.65.61,1.87.36,4.62,1.57,6.46,2.3,18.6,7.36,35.44,19.26,45.21,37.09,1.82,3.32,3.75,7.38,4.65,11.07.22.9.74,3.51.47,4.29-.1.29-.58.18-.71.4-.19.36-.4,1.64-.57,2.16-2.15,6.83-5.51,10.17-11.2,14.23-13.33,9.51-29.38,12.94-45.61,10.62-2.45-.35-5.62-1.55-7.93-1.42-2.12.12-4.22.73-6.36.84-12.08.61-30.82-3.74-38.49-13.81-1.95-2.56-3.19-6.5-4.54-9.5-.08-.18-.02-.39-.33-.33ZM73.25,25.95c-2.79.47-7.03,6.75-8.14,9.25-1.87,4.19-1.78,7.73-2.4,12.12-1.39,9.98-4.38,20.25,2.66,28.93,6.56,8.09,13.72,6.14,22.03,9.88,2.4,1.08,3.93,2.02,6.61,2.62,3.16.71,16.11,2.86,10.81-3.98-2.36-3.04-6.89-5.86-9.83-8.64-10.42-9.87-21.12-24.59-20.99-39.61.02-2.88,1.23-6.34,1.09-9.23-.06-1.19-.66-1.55-1.83-1.35ZM138.17,42.36c-3.22-.96-6.4-2.43-9.63-.58-2.54,1.46-3.67,4.91-2.34,7.58.45.9.82.95,1.53,1.47.39.29.64.82,1.21.77-1.51-1.89-.47-4.1,1.14-5.52,1.49-1.32,3.73-2.06,5.61-2.67.63-.21,1.61-.36,2.16-.6.19-.08.37-.21.33-.45ZM140.93,43.8h-1.74c-.14,0-1.15.39-1.3.5-.44.32-.42.76-.18,1.23.63,1.23,4.31,2.76,5.61,3.63.98.65,1.7,1.62,2.94,1.73.6.05,3.6.07,3.99-.1.57-.24.56-1.08.46-1.6-.5-2.59-6.71-6.2-9.06-7.13-.97-.39-2.05-.88-3.11-.72l2.4,2.46ZM101.44,41.44c-3.94.34-5.7,3.29-3.83,6.88,2.18,4.19,8.69,7.52,13.33,6.34,3.32-.84,2.89-3.65,1.25-5.93-.91-1.27-3.65-2.9-3.86-4.3-.05-.35.04-1.01-.09-1.23-.28-.47-4.8-1.71-5.53-1.78-.43-.04-.84-.02-1.27.02Z"/>
  <path class="cls-3" d="M49.29,143.88c.02,1.87.37,4.48.62,6.4,2.17,16.79,9.9,29.4,25.69,36.22,13.52,5.84,33.94,4.7,46.86-2.36,4.4-2.4,6.2-3.54,5.12-8.96-.73-3.65-1.52-6.38-1.65-10.23-.36-10.45,3.87-18.13,11.57-24.79.99-.63.31.97.07,1.33-.06.09-.76.65-.96.9-4.27,5.34-6.87,10.29-7.68,17.22-.39,3.32-.43,9.43,1.06,12.44.19.39,1.31,2.07,1.55.91.23-1.09-.6-3.97-.79-5.27-.39-2.71-.51-5.36-.26-8.08.51-5.48,4.14-13.82,8.04-17.76,1.33-1.34,5.09-4,6.79-4.79,1.12-.52,2.92-.43,2.08-2.17,1.42.05,3.08-.8,4.32-1.5,3.27-1.84,3.39-3.33,2.31-6.76-1.5-4.73-5.4-12.06-10.78-12.85s-11.62-.32-17.26-.49c-11.4-.34-22.66-2.92-34.06-3.48-2.36-.12-4.73,0-7.07,0-5.96,0-11.88-.01-17.82-.36.01-.57.28-1.02.24-1.62-.17-2.9-6.29-9.22-8.18-11.86-4.58-6.4-6.88-12.79-7.17-20.73.31-.06.25.15.33.33,1.35,3,2.59,6.94,4.54,9.5,7.67,10.07,26.4,14.42,38.49,13.81,2.14-.11,4.24-.72,6.36-.84,2.31-.13,5.48,1.07,7.93,1.42,16.23,2.32,32.28-1.1,45.61-10.62,5.69-4.06,9.05-7.4,11.2-14.23.16-.52.37-1.81.57-2.16.12-.23.61-.12.71-.4.27-.78-.25-3.39-.47-4.29-.9-3.68-2.83-7.75-4.65-11.07-9.76-17.83-26.6-29.73-45.21-37.09-1.84-.73-4.59-1.93-6.46-2.3-.58-.11-.73.26-.65-.61,10.19,1.73,22.15,8.2,30.62,14.06,15.91,11.01,35.86,31.74,31.18,53-1.7,7.75-7.17,12.05-11.05,18.46-2.13,3.52-3.16,5.07-.15,8.5,2.8,3.19,5.75,5.37,8.26,9.02,16.92,24.58,7.25,60.04-16.49,76.34-12.64,8.68-34.83,10.19-49.75,9.02-7.1-.56-15.32-1.97-21.89-4.74-18.66-7.87-34.57-34.76-32.01-54.94.06-.48.15-1.08.34-1.52Z"/>
  <path class="cls-1" d="M67.05,109.44c5.93.35,11.86.37,17.82.36,2.34,0,4.71-.12,7.07,0,11.4.57,22.66,3.14,34.06,3.48,5.64.17,11.68-.33,17.26.49s9.29,8.12,10.78,12.85c1.08,3.42.96,4.92-2.31,6.76-1.24.69-2.9,1.54-4.32,1.5.84,1.75-.96,1.65-2.08,2.17-1.71.79-5.46,3.45-6.79,4.79l-.96-.36c.25-.36.93-1.95-.07-1.33-7.7,6.66-11.93,14.34-11.57,24.79.13,3.86.92,6.59,1.65,10.23,1.08,5.42-.72,6.56-5.12,8.96-12.92,7.06-33.34,8.2-46.86,2.36-15.79-6.82-23.52-19.42-25.69-36.22-.25-1.93-.6-4.53-.62-6.4-.02-2.77,1.03-7.44,1.74-10.2,2.47-9.58,9.46-17.21,16.01-24.24ZM72.54,112.1c-1.98.54-2.46,2.6-3.31,4.14-4.26,7.73-11.56,12.39-12.14,22.29-.98,16.75,11.09,29.07,27.19,31.13,11.7,1.5,27.33-2.46,35.55-11.32,2.14-2.3,2.12-4.3,3.18-7.02.68-1.74,1.84-4,2.75-5.64,1.52-2.72,5.61-7.28,5.46-10.26-.31-5.85-4.75-10.67-4.43-16.2.07-1.17.66-2.23-.42-3.18-.89-.79-3.69-1.03-4.94-1.18-6.84-.81-13.75-.54-20.62-.85-9.43-.43-18.82-1.67-28.27-1.9Z"/>
  <path class="cls-2" d="M73.25,25.95c1.17-.2,1.77.16,1.83,1.35.15,2.89-1.06,6.35-1.09,9.23-.12,15.01,10.58,29.73,20.99,39.61,2.94,2.79,7.48,5.6,9.83,8.64,5.3,6.84-7.65,4.69-10.81,3.98-2.69-.6-4.21-1.54-6.61-2.62-8.3-3.75-15.47-1.79-22.03-9.88-7.04-8.68-4.05-18.96-2.66-28.93.61-4.39.53-7.94,2.4-12.12,1.11-2.5,5.35-8.78,8.14-9.25Z"/>
  <path class="cls-3" d="M101.44,41.44c.43-.04.84-.06,1.27-.02.74.07,5.25,1.32,5.53,1.78.13.22.04.88.09,1.23.21,1.4,2.95,3.03,3.86,4.3,1.64,2.29,2.06,5.09-1.25,5.93-4.64,1.18-11.15-2.15-13.33-6.34-1.87-3.59-.1-6.55,3.83-6.88Z"/>
  <path class="cls-2" d="M140.93,43.8l-2.4-2.46c1.06-.15,2.14.34,3.11.72,2.35.93,8.57,4.54,9.06,7.13.1.52.12,1.35-.46,1.6-.4.17-3.39.15-3.99.1-1.24-.11-1.96-1.08-2.94-1.73-1.3-.86-4.98-2.4-5.61-3.63-.24-.46-.26-.91.18-1.23.16-.11,1.16-.5,1.3-.5h1.74Z"/>
  <path class="cls-3" d="M138.17,42.36c.04.23-.14.37-.33.45-.55.24-1.53.39-2.16.6-1.88.61-4.11,1.35-5.61,2.67-1.6,1.42-2.64,3.63-1.14,5.52-.57.05-.82-.48-1.21-.77-.71-.53-1.08-.57-1.53-1.47-1.32-2.67-.2-6.12,2.34-7.58,3.23-1.86,6.41-.38,9.63.58Z"/>
  <path class="cls-2" d="M137.57,141.48l.96.36c-3.9,3.94-7.53,12.28-8.04,17.76h-1.56c.81-6.93,3.41-11.87,7.68-17.22.2-.25.9-.81.96-.9Z"/>
  <path class="cls-1" d="M130.49,159.6c-.25,2.72-.13,5.37.26,8.08.19,1.3,1.01,4.19.79,5.27-.24,1.15-1.35-.52-1.55-.91-1.49-3.01-1.45-9.12-1.06-12.44h1.56Z"/>
  <path class="cls-2" d="M72.54,112.1c9.44.24,18.84,1.48,28.27,1.9,6.87.31,13.78.04,20.62.85,1.25.15,4.05.4,4.94,1.18,1.08.95.49,2.01.42,3.18-.32,5.53,4.13,10.35,4.43,16.2.16,2.98-3.94,7.53-5.46,10.26-.92,1.65-2.08,3.9-2.75,5.64-1.06,2.72-1.04,4.72-3.18,7.02-8.22,8.86-23.85,12.82-35.55,11.32-16.1-2.06-28.16-14.38-27.19-31.13.58-9.9,7.88-14.56,12.14-22.29.85-1.54,1.33-3.6,3.31-4.14Z"/>
</svg>